<?xml version="1.0" standalone="no"?>
<!DOCTYPE svg PUBLIC "-//W3C//DTD SVG 20010904//EN"
 "http://www.w3.org/TR/2001/REC-SVG-20010904/DTD/svg10.dtd">
<svg version="1.0" xmlns="http://www.w3.org/2000/svg"
 width="1280.000000pt" height="882.000000pt" viewBox="0 0 1280.000000 882.000000"
 preserveAspectRatio="xMidYMid meet">
<g transform="translate(0.000000,882.000000) scale(0.100000,-0.100000)"
fill="#000000" stroke="none">
<path d="M4065 8792 c-129 -72 -440 -341 -607 -526 -146 -162 -215 -253 -313
-416 -92 -153 -152 -242 -273 -405 -50 -67 -99 -150 -149 -255 -41 -85 -80
-166 -86 -180 -7 -14 -21 -25 -32 -25 -18 0 -20 6 -17 76 2 43 0 79 -6 83 -5
3 -25 -5 -45 -18 -24 -17 -38 -21 -45 -14 -17 17 -68 -10 -107 -56 l-34 -41
-103 72 c-567 397 -1050 702 -1364 862 -99 50 -229 126 -290 169 -159 112
-217 136 -326 137 -130 0 -135 -5 -213 -243 -40 -120 -63 -377 -45 -490 60
-384 103 -526 245 -817 157 -323 365 -579 627 -767 83 -61 89 -68 151 -178
166 -293 209 -436 187 -614 l-5 -39 62 -17 c34 -9 72 -24 85 -34 13 -9 38 -26
56 -37 38 -25 40 -36 8 -49 -57 -21 -37 -54 67 -106 37 -19 65 -39 62 -44 -4
-6 -22 -17 -41 -25 -19 -8 -34 -21 -34 -30 0 -22 71 -52 160 -66 57 -9 81 -18
101 -38 15 -14 37 -33 50 -42 l24 -17 -24 -26 c-13 -14 -52 -40 -87 -58 -35
-18 -64 -37 -64 -41 0 -5 36 -7 80 -6 44 1 83 -1 86 -4 11 -11 -23 -47 -137
-145 -63 -53 -129 -119 -146 -146 -34 -50 -67 -142 -57 -158 3 -5 31 5 61 22
30 17 58 29 61 25 3 -3 -2 -56 -12 -118 -24 -143 -33 -356 -17 -385 6 -12 18
-22 26 -22 7 0 16 -8 19 -17 2 -10 14 -52 26 -93 39 -135 70 -155 70 -44 0 35
3 64 8 64 20 -1 60 -92 67 -151 20 -182 50 -358 90 -522 25 -100 50 -230 56
-289 15 -131 11 -138 -70 -138 -154 0 -392 -57 -630 -149 -166 -65 -211 -93
-254 -163 -32 -51 -198 -471 -251 -635 -67 -209 -69 -317 -6 -329 22 -5 32
-16 45 -50 9 -24 31 -56 49 -72 110 -96 236 -95 345 3 20 19 61 43 90 55 30
11 72 32 95 45 152 89 259 329 189 423 -20 27 -21 37 -15 113 l7 84 80 22
c277 76 642 166 775 192 232 45 471 76 479 62 4 -6 5 -27 3 -46 -4 -29 -17
-47 -74 -98 -146 -130 -255 -298 -294 -452 -21 -87 -24 -243 -5 -347 l14 -78
-48 -79 c-62 -102 -149 -199 -225 -249 -33 -23 -103 -54 -157 -72 -194 -64
-305 -141 -375 -261 -44 -74 -49 -122 -17 -163 33 -42 65 -52 199 -66 101 -10
143 -10 220 1 52 7 190 13 306 13 l210 1 50 30 c61 38 110 107 164 233 24 53
46 101 50 105 3 4 31 12 61 18 30 5 66 12 80 15 16 4 42 -2 66 -15 22 -11 71
-25 109 -32 38 -7 73 -15 77 -19 5 -4 -3 -30 -17 -58 -57 -112 -55 -186 5
-237 34 -28 70 -31 129 -14 35 11 41 9 76 -18 73 -56 158 -75 234 -52 19 5
118 14 220 19 191 9 285 24 370 61 47 20 51 20 176 5 181 -21 1036 -21 1174 0
125 19 304 64 525 130 156 47 183 53 210 43 70 -26 113 -31 365 -39 193 -6
313 -16 441 -34 498 -72 1812 -116 2579 -86 189 7 699 54 922 85 21 3 172 10
335 15 437 15 611 37 828 107 207 67 257 100 561 368 185 163 277 254 340 339
55 72 66 64 -136 100 -313 55 -493 122 -715 263 -60 38 -157 97 -215 132 -103
61 -136 84 -436 311 -185 140 -356 244 -643 389 -193 98 -249 121 -463 190
-484 158 -653 206 -903 253 -161 30 -543 33 -669 6 -87 -20 -116 -22 -116 -10
0 12 207 269 291 363 38 42 69 80 69 84 0 13 -287 -2 -385 -20 -190 -34 -415
-129 -555 -235 -64 -47 -199 -182 -352 -349 -43 -47 -80 -82 -84 -78 -4 3 3
30 14 59 31 77 41 133 42 223 0 111 -5 116 -75 74 -81 -49 -209 -162 -282
-249 -84 -101 -144 -211 -189 -346 -21 -63 -41 -114 -46 -114 -4 0 -10 10 -12
22 -27 124 -60 249 -86 328 -162 485 -508 1000 -867 1293 -354 288 -436 347
-593 431 -100 53 -175 82 -365 142 -77 24 -206 70 -288 101 l-147 57 -11 41
c-25 90 -76 153 -170 208 -61 36 -234 92 -359 116 -104 20 -210 64 -210 87 0
7 63 74 141 150 77 77 145 147 151 158 9 17 7 18 -17 14 -44 -9 -40 15 18 109
66 108 100 173 93 180 -3 3 -26 0 -51 -7 -25 -7 -48 -10 -51 -8 -10 11 51 71
91 89 23 11 63 19 98 19 48 0 57 3 57 18 0 36 -61 120 -134 185 -82 74 -148
178 -147 232 0 17 -4 46 -9 66 -8 29 -6 47 15 97 73 179 162 471 209 683 70
317 79 458 63 1029 -9 343 -9 345 -59 499 -31 98 -42 150 -48 232 -7 111 -10
120 -43 157 -26 28 -31 28 -92 -6z"/>
</g>
</svg>
